G75*
%MOIN*%
%OFA0B0*%
%FSLAX25Y25*%
%IPPOS*%
%LPD*%
%AMOC8*
5,1,8,0,0,1.08239X$1,22.5*
%
%ADD10R,0.03937X0.04331*%
%ADD11R,0.02480X0.03268*%
%ADD12R,0.07874X0.04724*%
%ADD13R,0.05315X0.02362*%
%ADD14R,0.05118X0.05118*%
%ADD15R,0.01181X0.03150*%
%ADD16R,0.04724X0.02165*%
D10*
X0094144Y0053404D03*
X0094144Y0060096D03*
X0102644Y0060096D03*
X0102644Y0053404D03*
X0111144Y0053404D03*
X0111144Y0060096D03*
X0119644Y0060096D03*
X0119644Y0053404D03*
X0128144Y0053404D03*
X0128144Y0060096D03*
X0130144Y0078404D03*
X0124144Y0078404D03*
X0124144Y0085096D03*
X0130144Y0085096D03*
X0126144Y0097404D03*
X0120144Y0097404D03*
X0114144Y0097404D03*
X0108144Y0097404D03*
X0108144Y0104096D03*
X0114144Y0104096D03*
X0120144Y0104096D03*
X0126144Y0104096D03*
X0102144Y0104096D03*
X0096144Y0104096D03*
X0096144Y0097404D03*
X0102144Y0097404D03*
X0102644Y0155404D03*
X0094144Y0155404D03*
X0094144Y0162096D03*
X0102644Y0162096D03*
X0111144Y0162096D03*
X0111144Y0155404D03*
X0119644Y0155404D03*
X0119644Y0162096D03*
X0128144Y0162096D03*
X0128144Y0155404D03*
X0130144Y0180404D03*
X0124144Y0180404D03*
X0124144Y0187096D03*
X0130144Y0187096D03*
X0126144Y0199404D03*
X0120144Y0199404D03*
X0114144Y0199404D03*
X0108144Y0199404D03*
X0102144Y0199404D03*
X0096144Y0199404D03*
X0096144Y0206096D03*
X0102144Y0206096D03*
X0108144Y0206096D03*
X0114144Y0206096D03*
X0120144Y0206096D03*
X0126144Y0206096D03*
X0128144Y0257404D03*
X0128144Y0264096D03*
X0119644Y0264096D03*
X0119644Y0257404D03*
X0111144Y0257404D03*
X0111144Y0264096D03*
X0102644Y0264096D03*
X0102644Y0257404D03*
X0094144Y0257404D03*
X0094144Y0264096D03*
X0124144Y0282404D03*
X0130144Y0282404D03*
X0130144Y0289096D03*
X0124144Y0289096D03*
X0126144Y0301404D03*
X0120144Y0301404D03*
X0114144Y0301404D03*
X0108144Y0301404D03*
X0108144Y0308096D03*
X0114144Y0308096D03*
X0120144Y0308096D03*
X0126144Y0308096D03*
X0102144Y0308096D03*
X0096144Y0308096D03*
X0096144Y0301404D03*
X0102144Y0301404D03*
X0196144Y0264096D03*
X0196144Y0257404D03*
X0204644Y0257404D03*
X0204644Y0264096D03*
X0213144Y0264096D03*
X0213144Y0257404D03*
X0221644Y0257404D03*
X0221644Y0264096D03*
X0230144Y0264096D03*
X0230144Y0257404D03*
X0232144Y0282404D03*
X0226144Y0282404D03*
X0226144Y0289096D03*
X0232144Y0289096D03*
X0228144Y0301404D03*
X0222144Y0301404D03*
X0216144Y0301404D03*
X0216144Y0308096D03*
X0222144Y0308096D03*
X0228144Y0308096D03*
X0210144Y0308096D03*
X0204144Y0308096D03*
X0198144Y0308096D03*
X0198144Y0301404D03*
X0204144Y0301404D03*
X0210144Y0301404D03*
X0298144Y0264096D03*
X0298144Y0257404D03*
X0306644Y0257404D03*
X0306644Y0264096D03*
X0315144Y0264096D03*
X0315144Y0257404D03*
X0323644Y0257404D03*
X0323644Y0264096D03*
X0332144Y0264096D03*
X0332144Y0257404D03*
X0334144Y0282404D03*
X0328144Y0282404D03*
X0328144Y0289096D03*
X0334144Y0289096D03*
X0330144Y0301404D03*
X0324144Y0301404D03*
X0324144Y0308096D03*
X0330144Y0308096D03*
X0318144Y0308096D03*
X0312144Y0308096D03*
X0306144Y0308096D03*
X0300144Y0308096D03*
X0300144Y0301404D03*
X0306144Y0301404D03*
X0312144Y0301404D03*
X0318144Y0301404D03*
X0318144Y0206096D03*
X0312144Y0206096D03*
X0306144Y0206096D03*
X0300144Y0206096D03*
X0300144Y0199404D03*
X0306144Y0199404D03*
X0312144Y0199404D03*
X0318144Y0199404D03*
X0324144Y0199404D03*
X0330144Y0199404D03*
X0330144Y0206096D03*
X0324144Y0206096D03*
X0328144Y0187096D03*
X0334144Y0187096D03*
X0334144Y0180404D03*
X0328144Y0180404D03*
X0332144Y0162096D03*
X0323644Y0162096D03*
X0323644Y0155404D03*
X0332144Y0155404D03*
X0315144Y0155404D03*
X0315144Y0162096D03*
X0306644Y0162096D03*
X0306644Y0155404D03*
X0298144Y0155404D03*
X0298144Y0162096D03*
X0230144Y0162096D03*
X0230144Y0155404D03*
X0221644Y0155404D03*
X0221644Y0162096D03*
X0213144Y0162096D03*
X0213144Y0155404D03*
X0204644Y0155404D03*
X0204644Y0162096D03*
X0196144Y0162096D03*
X0196144Y0155404D03*
X0226144Y0180404D03*
X0232144Y0180404D03*
X0232144Y0187096D03*
X0226144Y0187096D03*
X0228144Y0199404D03*
X0222144Y0199404D03*
X0216144Y0199404D03*
X0210144Y0199404D03*
X0204144Y0199404D03*
X0198144Y0199404D03*
X0198144Y0206096D03*
X0204144Y0206096D03*
X0210144Y0206096D03*
X0216144Y0206096D03*
X0222144Y0206096D03*
X0228144Y0206096D03*
X0228144Y0104096D03*
X0222144Y0104096D03*
X0216144Y0104096D03*
X0216144Y0097404D03*
X0222144Y0097404D03*
X0228144Y0097404D03*
X0226144Y0085096D03*
X0232144Y0085096D03*
X0232144Y0078404D03*
X0226144Y0078404D03*
X0230144Y0060096D03*
X0230144Y0053404D03*
X0221644Y0053404D03*
X0221644Y0060096D03*
X0213144Y0060096D03*
X0213144Y0053404D03*
X0204644Y0053404D03*
X0204644Y0060096D03*
X0196144Y0060096D03*
X0196144Y0053404D03*
X0198144Y0097404D03*
X0204144Y0097404D03*
X0210144Y0097404D03*
X0210144Y0104096D03*
X0204144Y0104096D03*
X0198144Y0104096D03*
X0298144Y0060096D03*
X0298144Y0053404D03*
X0306644Y0053404D03*
X0306644Y0060096D03*
X0315144Y0060096D03*
X0315144Y0053404D03*
X0323644Y0053404D03*
X0323644Y0060096D03*
X0332144Y0060096D03*
X0332144Y0053404D03*
X0334144Y0078404D03*
X0328144Y0078404D03*
X0328144Y0085096D03*
X0334144Y0085096D03*
X0330144Y0097404D03*
X0324144Y0097404D03*
X0324144Y0104096D03*
X0330144Y0104096D03*
X0318144Y0104096D03*
X0312144Y0104096D03*
X0306144Y0104096D03*
X0300144Y0104096D03*
X0300144Y0097404D03*
X0306144Y0097404D03*
X0312144Y0097404D03*
X0318144Y0097404D03*
D11*
X0317671Y0071750D03*
X0308616Y0071750D03*
X0215671Y0071750D03*
X0206616Y0071750D03*
X0113671Y0071750D03*
X0104616Y0071750D03*
X0104616Y0173750D03*
X0113671Y0173750D03*
X0206616Y0173750D03*
X0215671Y0173750D03*
X0308616Y0173750D03*
X0317671Y0173750D03*
X0317671Y0275750D03*
X0308616Y0275750D03*
X0215671Y0275750D03*
X0206616Y0275750D03*
X0113671Y0275750D03*
X0104616Y0275750D03*
D12*
X0066675Y0067726D03*
X0066675Y0089774D03*
X0155612Y0089774D03*
X0168675Y0089774D03*
X0168675Y0067726D03*
X0155612Y0067726D03*
X0257612Y0067726D03*
X0270675Y0067726D03*
X0270675Y0089774D03*
X0257612Y0089774D03*
X0257612Y0169726D03*
X0270675Y0169726D03*
X0270675Y0191774D03*
X0257612Y0191774D03*
X0168675Y0191774D03*
X0155612Y0191774D03*
X0155612Y0169726D03*
X0168675Y0169726D03*
X0066675Y0169726D03*
X0066675Y0191774D03*
X0066675Y0271726D03*
X0066675Y0293774D03*
X0155612Y0293774D03*
X0168675Y0293774D03*
X0168675Y0271726D03*
X0155612Y0271726D03*
X0257612Y0271726D03*
X0270675Y0271726D03*
X0270675Y0293774D03*
X0257612Y0293774D03*
X0359612Y0293774D03*
X0359612Y0271726D03*
X0359612Y0191774D03*
X0359612Y0169726D03*
X0359612Y0089774D03*
X0359612Y0067726D03*
D13*
X0345144Y0072844D03*
X0345144Y0076781D03*
X0345144Y0080719D03*
X0345144Y0084656D03*
X0285144Y0084656D03*
X0285144Y0080719D03*
X0285144Y0076781D03*
X0285144Y0072844D03*
X0243144Y0072844D03*
X0243144Y0076781D03*
X0243144Y0080719D03*
X0243144Y0084656D03*
X0183144Y0084656D03*
X0183144Y0080719D03*
X0183144Y0076781D03*
X0183144Y0072844D03*
X0141144Y0072844D03*
X0141144Y0076781D03*
X0141144Y0080719D03*
X0141144Y0084656D03*
X0081144Y0084656D03*
X0081144Y0080719D03*
X0081144Y0076781D03*
X0081144Y0072844D03*
X0081144Y0174844D03*
X0081144Y0178781D03*
X0081144Y0182719D03*
X0081144Y0186656D03*
X0141144Y0186656D03*
X0141144Y0182719D03*
X0141144Y0178781D03*
X0141144Y0174844D03*
X0183144Y0174844D03*
X0183144Y0178781D03*
X0183144Y0182719D03*
X0183144Y0186656D03*
X0243144Y0186656D03*
X0243144Y0182719D03*
X0243144Y0178781D03*
X0243144Y0174844D03*
X0285144Y0174844D03*
X0285144Y0178781D03*
X0285144Y0182719D03*
X0285144Y0186656D03*
X0345144Y0186656D03*
X0345144Y0182719D03*
X0345144Y0178781D03*
X0345144Y0174844D03*
X0345144Y0276844D03*
X0345144Y0280781D03*
X0345144Y0284719D03*
X0345144Y0288656D03*
X0285144Y0288656D03*
X0285144Y0284719D03*
X0285144Y0280781D03*
X0285144Y0276844D03*
X0243144Y0276844D03*
X0243144Y0280781D03*
X0243144Y0284719D03*
X0243144Y0288656D03*
X0183144Y0288656D03*
X0183144Y0284719D03*
X0183144Y0280781D03*
X0183144Y0276844D03*
X0141144Y0276844D03*
X0141144Y0280781D03*
X0141144Y0284719D03*
X0141144Y0288656D03*
X0081144Y0288656D03*
X0081144Y0284719D03*
X0081144Y0280781D03*
X0081144Y0276844D03*
D14*
X0094144Y0276844D03*
X0094144Y0288656D03*
X0196144Y0288656D03*
X0196144Y0276844D03*
X0196144Y0186656D03*
X0196144Y0174844D03*
X0094144Y0174844D03*
X0094144Y0186656D03*
X0094144Y0084656D03*
X0094144Y0072844D03*
X0196144Y0072844D03*
X0196144Y0084656D03*
X0298144Y0084656D03*
X0298144Y0072844D03*
X0298144Y0174844D03*
X0298144Y0186656D03*
X0298144Y0276844D03*
X0298144Y0288656D03*
D15*
X0298411Y0316175D03*
X0296443Y0316175D03*
X0294474Y0316175D03*
X0292506Y0316175D03*
X0300380Y0316175D03*
X0302348Y0316175D03*
X0304317Y0316175D03*
X0306285Y0316175D03*
X0308254Y0316175D03*
X0310223Y0316175D03*
X0312191Y0316175D03*
X0314160Y0316175D03*
X0316128Y0316175D03*
X0318097Y0316175D03*
X0320065Y0316175D03*
X0322034Y0316175D03*
X0324002Y0316175D03*
X0325971Y0316175D03*
X0327939Y0316175D03*
X0329908Y0316175D03*
X0331876Y0316175D03*
X0333845Y0316175D03*
X0335813Y0316175D03*
X0337782Y0316175D03*
X0235782Y0316175D03*
X0233813Y0316175D03*
X0231845Y0316175D03*
X0229876Y0316175D03*
X0227908Y0316175D03*
X0225939Y0316175D03*
X0223971Y0316175D03*
X0222002Y0316175D03*
X0220034Y0316175D03*
X0218065Y0316175D03*
X0216097Y0316175D03*
X0214128Y0316175D03*
X0212160Y0316175D03*
X0210191Y0316175D03*
X0208223Y0316175D03*
X0206254Y0316175D03*
X0204285Y0316175D03*
X0202317Y0316175D03*
X0200348Y0316175D03*
X0198380Y0316175D03*
X0196411Y0316175D03*
X0194443Y0316175D03*
X0192474Y0316175D03*
X0190506Y0316175D03*
X0133782Y0316175D03*
X0131813Y0316175D03*
X0129845Y0316175D03*
X0127876Y0316175D03*
X0125908Y0316175D03*
X0123939Y0316175D03*
X0121971Y0316175D03*
X0120002Y0316175D03*
X0118034Y0316175D03*
X0116065Y0316175D03*
X0114097Y0316175D03*
X0112128Y0316175D03*
X0110160Y0316175D03*
X0108191Y0316175D03*
X0106223Y0316175D03*
X0104254Y0316175D03*
X0102285Y0316175D03*
X0100317Y0316175D03*
X0098348Y0316175D03*
X0096380Y0316175D03*
X0094411Y0316175D03*
X0092443Y0316175D03*
X0090474Y0316175D03*
X0088506Y0316175D03*
X0088506Y0214175D03*
X0090474Y0214175D03*
X0092443Y0214175D03*
X0094411Y0214175D03*
X0096380Y0214175D03*
X0098348Y0214175D03*
X0100317Y0214175D03*
X0102285Y0214175D03*
X0104254Y0214175D03*
X0106223Y0214175D03*
X0108191Y0214175D03*
X0110160Y0214175D03*
X0112128Y0214175D03*
X0114097Y0214175D03*
X0116065Y0214175D03*
X0118034Y0214175D03*
X0120002Y0214175D03*
X0121971Y0214175D03*
X0123939Y0214175D03*
X0125908Y0214175D03*
X0127876Y0214175D03*
X0129845Y0214175D03*
X0131813Y0214175D03*
X0133782Y0214175D03*
X0190506Y0214175D03*
X0192474Y0214175D03*
X0194443Y0214175D03*
X0196411Y0214175D03*
X0198380Y0214175D03*
X0200348Y0214175D03*
X0202317Y0214175D03*
X0204285Y0214175D03*
X0206254Y0214175D03*
X0208223Y0214175D03*
X0210191Y0214175D03*
X0212160Y0214175D03*
X0214128Y0214175D03*
X0216097Y0214175D03*
X0218065Y0214175D03*
X0220034Y0214175D03*
X0222002Y0214175D03*
X0223971Y0214175D03*
X0225939Y0214175D03*
X0227908Y0214175D03*
X0229876Y0214175D03*
X0231845Y0214175D03*
X0233813Y0214175D03*
X0235782Y0214175D03*
X0292506Y0214175D03*
X0294474Y0214175D03*
X0296443Y0214175D03*
X0298411Y0214175D03*
X0300380Y0214175D03*
X0302348Y0214175D03*
X0304317Y0214175D03*
X0306285Y0214175D03*
X0308254Y0214175D03*
X0310223Y0214175D03*
X0312191Y0214175D03*
X0314160Y0214175D03*
X0316128Y0214175D03*
X0318097Y0214175D03*
X0320065Y0214175D03*
X0322034Y0214175D03*
X0324002Y0214175D03*
X0325971Y0214175D03*
X0327939Y0214175D03*
X0329908Y0214175D03*
X0331876Y0214175D03*
X0333845Y0214175D03*
X0335813Y0214175D03*
X0337782Y0214175D03*
X0337782Y0112175D03*
X0335813Y0112175D03*
X0333845Y0112175D03*
X0331876Y0112175D03*
X0329908Y0112175D03*
X0327939Y0112175D03*
X0325971Y0112175D03*
X0324002Y0112175D03*
X0322034Y0112175D03*
X0320065Y0112175D03*
X0318097Y0112175D03*
X0316128Y0112175D03*
X0314160Y0112175D03*
X0312191Y0112175D03*
X0310223Y0112175D03*
X0308254Y0112175D03*
X0306285Y0112175D03*
X0304317Y0112175D03*
X0302348Y0112175D03*
X0300380Y0112175D03*
X0298411Y0112175D03*
X0296443Y0112175D03*
X0294474Y0112175D03*
X0292506Y0112175D03*
X0235782Y0112175D03*
X0233813Y0112175D03*
X0231845Y0112175D03*
X0229876Y0112175D03*
X0227908Y0112175D03*
X0225939Y0112175D03*
X0223971Y0112175D03*
X0222002Y0112175D03*
X0220034Y0112175D03*
X0218065Y0112175D03*
X0216097Y0112175D03*
X0214128Y0112175D03*
X0212160Y0112175D03*
X0210191Y0112175D03*
X0208223Y0112175D03*
X0206254Y0112175D03*
X0204285Y0112175D03*
X0202317Y0112175D03*
X0200348Y0112175D03*
X0198380Y0112175D03*
X0196411Y0112175D03*
X0194443Y0112175D03*
X0192474Y0112175D03*
X0190506Y0112175D03*
X0133782Y0112175D03*
X0131813Y0112175D03*
X0129845Y0112175D03*
X0127876Y0112175D03*
X0125908Y0112175D03*
X0123939Y0112175D03*
X0121971Y0112175D03*
X0120002Y0112175D03*
X0118034Y0112175D03*
X0116065Y0112175D03*
X0114097Y0112175D03*
X0112128Y0112175D03*
X0110160Y0112175D03*
X0108191Y0112175D03*
X0106223Y0112175D03*
X0104254Y0112175D03*
X0102285Y0112175D03*
X0100317Y0112175D03*
X0098348Y0112175D03*
X0096380Y0112175D03*
X0094411Y0112175D03*
X0092443Y0112175D03*
X0090474Y0112175D03*
X0088506Y0112175D03*
D16*
X0104025Y0084990D03*
X0104025Y0077510D03*
X0114262Y0077510D03*
X0114262Y0081250D03*
X0114262Y0084990D03*
X0206025Y0084990D03*
X0206025Y0077510D03*
X0216262Y0077510D03*
X0216262Y0081250D03*
X0216262Y0084990D03*
X0308025Y0084990D03*
X0308025Y0077510D03*
X0318262Y0077510D03*
X0318262Y0081250D03*
X0318262Y0084990D03*
X0318262Y0179510D03*
X0318262Y0183250D03*
X0318262Y0186990D03*
X0308025Y0186990D03*
X0308025Y0179510D03*
X0216262Y0179510D03*
X0216262Y0183250D03*
X0216262Y0186990D03*
X0206025Y0186990D03*
X0206025Y0179510D03*
X0114262Y0179510D03*
X0114262Y0183250D03*
X0114262Y0186990D03*
X0104025Y0186990D03*
X0104025Y0179510D03*
X0104025Y0281510D03*
X0104025Y0288990D03*
X0114262Y0288990D03*
X0114262Y0285250D03*
X0114262Y0281510D03*
X0206025Y0281510D03*
X0206025Y0288990D03*
X0216262Y0288990D03*
X0216262Y0285250D03*
X0216262Y0281510D03*
X0308025Y0281510D03*
X0308025Y0288990D03*
X0318262Y0288990D03*
X0318262Y0285250D03*
X0318262Y0281510D03*
M02*
