G75*
%MOIN*%
%OFA0B0*%
%FSLAX25Y25*%
%IPPOS*%
%LPD*%
%AMOC8*
5,1,8,0,0,1.08239X$1,22.5*
%
%ADD10C,0.04737*%
%ADD11R,0.03300X0.05800*%
%ADD12C,0.00500*%
%ADD13C,0.08200*%
%ADD14C,0.13800*%
D10*
X0064269Y0031875D03*
X0166269Y0031875D03*
X0268269Y0031875D03*
X0260019Y0125625D03*
X0268269Y0133875D03*
X0362019Y0125625D03*
X0362019Y0227625D03*
X0268269Y0235875D03*
X0260019Y0227625D03*
X0166269Y0235875D03*
X0158019Y0227625D03*
X0064269Y0235875D03*
X0158019Y0329625D03*
X0260019Y0329625D03*
X0362019Y0329625D03*
X0166269Y0133875D03*
X0158019Y0125625D03*
X0064269Y0133875D03*
D11*
X0079144Y0169750D03*
X0083144Y0169750D03*
X0099544Y0169750D03*
X0102744Y0169750D03*
X0119144Y0169750D03*
X0123144Y0169750D03*
X0139144Y0169750D03*
X0143144Y0169750D03*
X0181144Y0169750D03*
X0185144Y0169750D03*
X0201544Y0169750D03*
X0204744Y0169750D03*
X0221144Y0169750D03*
X0225144Y0169750D03*
X0241144Y0169750D03*
X0245144Y0169750D03*
X0283144Y0169750D03*
X0287144Y0169750D03*
X0303544Y0169750D03*
X0306744Y0169750D03*
X0323144Y0169750D03*
X0327144Y0169750D03*
X0343144Y0169750D03*
X0347144Y0169750D03*
X0347144Y0271750D03*
X0343144Y0271750D03*
X0327144Y0271750D03*
X0323144Y0271750D03*
X0306744Y0271750D03*
X0303544Y0271750D03*
X0287144Y0271750D03*
X0283144Y0271750D03*
X0245144Y0271750D03*
X0241144Y0271750D03*
X0225144Y0271750D03*
X0221144Y0271750D03*
X0204744Y0271750D03*
X0201544Y0271750D03*
X0185144Y0271750D03*
X0181144Y0271750D03*
X0143144Y0271750D03*
X0139144Y0271750D03*
X0123144Y0271750D03*
X0119144Y0271750D03*
X0102744Y0271750D03*
X0099544Y0271750D03*
X0083144Y0271750D03*
X0079144Y0271750D03*
X0079144Y0067750D03*
X0083144Y0067750D03*
X0099544Y0067750D03*
X0102744Y0067750D03*
X0119144Y0067750D03*
X0123144Y0067750D03*
X0139144Y0067750D03*
X0143144Y0067750D03*
X0181144Y0067750D03*
X0185144Y0067750D03*
X0201544Y0067750D03*
X0204744Y0067750D03*
X0221144Y0067750D03*
X0225144Y0067750D03*
X0241144Y0067750D03*
X0245144Y0067750D03*
X0283144Y0067750D03*
X0287144Y0067750D03*
X0303544Y0067750D03*
X0306744Y0067750D03*
X0323144Y0067750D03*
X0327144Y0067750D03*
X0343144Y0067750D03*
X0347144Y0067750D03*
D12*
X0345894Y0067634D02*
X0344394Y0067634D01*
X0344394Y0067250D02*
X0345894Y0067250D01*
X0345894Y0068250D01*
X0344394Y0068250D01*
X0344394Y0067250D01*
X0344394Y0068132D02*
X0345894Y0068132D01*
X0325894Y0068132D02*
X0324394Y0068132D01*
X0324394Y0068250D02*
X0324394Y0067250D01*
X0325894Y0067250D01*
X0325894Y0068250D01*
X0324394Y0068250D01*
X0324394Y0067634D02*
X0325894Y0067634D01*
X0285894Y0067634D02*
X0284394Y0067634D01*
X0284394Y0067250D02*
X0285894Y0067250D01*
X0285894Y0068250D01*
X0284394Y0068250D01*
X0284394Y0067250D01*
X0284394Y0068132D02*
X0285894Y0068132D01*
X0243894Y0068132D02*
X0242394Y0068132D01*
X0242394Y0068250D02*
X0242394Y0067250D01*
X0243894Y0067250D01*
X0243894Y0068250D01*
X0242394Y0068250D01*
X0242394Y0067634D02*
X0243894Y0067634D01*
X0223894Y0067634D02*
X0222394Y0067634D01*
X0222394Y0067250D02*
X0223894Y0067250D01*
X0223894Y0068250D01*
X0222394Y0068250D01*
X0222394Y0067250D01*
X0222394Y0068132D02*
X0223894Y0068132D01*
X0183894Y0068132D02*
X0182394Y0068132D01*
X0182394Y0068250D02*
X0182394Y0067250D01*
X0183894Y0067250D01*
X0183894Y0068250D01*
X0182394Y0068250D01*
X0182394Y0067634D02*
X0183894Y0067634D01*
X0141894Y0067634D02*
X0140394Y0067634D01*
X0140394Y0067250D02*
X0141894Y0067250D01*
X0141894Y0068250D01*
X0140394Y0068250D01*
X0140394Y0067250D01*
X0140394Y0068132D02*
X0141894Y0068132D01*
X0121894Y0068132D02*
X0120394Y0068132D01*
X0120394Y0068250D02*
X0120394Y0067250D01*
X0121894Y0067250D01*
X0121894Y0068250D01*
X0120394Y0068250D01*
X0120394Y0067634D02*
X0121894Y0067634D01*
X0081894Y0067634D02*
X0080394Y0067634D01*
X0080394Y0067250D02*
X0081894Y0067250D01*
X0081894Y0068250D01*
X0080394Y0068250D01*
X0080394Y0067250D01*
X0080394Y0068132D02*
X0081894Y0068132D01*
X0081894Y0169250D02*
X0081894Y0170250D01*
X0080394Y0170250D01*
X0080394Y0169250D01*
X0081894Y0169250D01*
X0081894Y0169330D02*
X0080394Y0169330D01*
X0080394Y0169829D02*
X0081894Y0169829D01*
X0120394Y0169829D02*
X0121894Y0169829D01*
X0121894Y0170250D02*
X0121894Y0169250D01*
X0120394Y0169250D01*
X0120394Y0170250D01*
X0121894Y0170250D01*
X0121894Y0169330D02*
X0120394Y0169330D01*
X0140394Y0169330D02*
X0141894Y0169330D01*
X0141894Y0169250D02*
X0141894Y0170250D01*
X0140394Y0170250D01*
X0140394Y0169250D01*
X0141894Y0169250D01*
X0141894Y0169829D02*
X0140394Y0169829D01*
X0182394Y0169829D02*
X0183894Y0169829D01*
X0183894Y0170250D02*
X0183894Y0169250D01*
X0182394Y0169250D01*
X0182394Y0170250D01*
X0183894Y0170250D01*
X0183894Y0169330D02*
X0182394Y0169330D01*
X0222394Y0169330D02*
X0223894Y0169330D01*
X0223894Y0169250D02*
X0223894Y0170250D01*
X0222394Y0170250D01*
X0222394Y0169250D01*
X0223894Y0169250D01*
X0223894Y0169829D02*
X0222394Y0169829D01*
X0242394Y0169829D02*
X0243894Y0169829D01*
X0243894Y0170250D02*
X0243894Y0169250D01*
X0242394Y0169250D01*
X0242394Y0170250D01*
X0243894Y0170250D01*
X0243894Y0169330D02*
X0242394Y0169330D01*
X0284394Y0169330D02*
X0285894Y0169330D01*
X0285894Y0169250D02*
X0285894Y0170250D01*
X0284394Y0170250D01*
X0284394Y0169250D01*
X0285894Y0169250D01*
X0285894Y0169829D02*
X0284394Y0169829D01*
X0324394Y0169829D02*
X0325894Y0169829D01*
X0325894Y0170250D02*
X0325894Y0169250D01*
X0324394Y0169250D01*
X0324394Y0170250D01*
X0325894Y0170250D01*
X0325894Y0169330D02*
X0324394Y0169330D01*
X0344394Y0169330D02*
X0345894Y0169330D01*
X0345894Y0169250D02*
X0345894Y0170250D01*
X0344394Y0170250D01*
X0344394Y0169250D01*
X0345894Y0169250D01*
X0345894Y0169829D02*
X0344394Y0169829D01*
X0344394Y0271250D02*
X0345894Y0271250D01*
X0345894Y0272250D01*
X0344394Y0272250D01*
X0344394Y0271250D01*
X0344394Y0271525D02*
X0345894Y0271525D01*
X0345894Y0272024D02*
X0344394Y0272024D01*
X0325894Y0272024D02*
X0324394Y0272024D01*
X0324394Y0272250D02*
X0324394Y0271250D01*
X0325894Y0271250D01*
X0325894Y0272250D01*
X0324394Y0272250D01*
X0324394Y0271525D02*
X0325894Y0271525D01*
X0285894Y0271525D02*
X0284394Y0271525D01*
X0284394Y0271250D02*
X0285894Y0271250D01*
X0285894Y0272250D01*
X0284394Y0272250D01*
X0284394Y0271250D01*
X0284394Y0272024D02*
X0285894Y0272024D01*
X0243894Y0272024D02*
X0242394Y0272024D01*
X0242394Y0272250D02*
X0242394Y0271250D01*
X0243894Y0271250D01*
X0243894Y0272250D01*
X0242394Y0272250D01*
X0242394Y0271525D02*
X0243894Y0271525D01*
X0223894Y0271525D02*
X0222394Y0271525D01*
X0222394Y0271250D02*
X0223894Y0271250D01*
X0223894Y0272250D01*
X0222394Y0272250D01*
X0222394Y0271250D01*
X0222394Y0272024D02*
X0223894Y0272024D01*
X0183894Y0272024D02*
X0182394Y0272024D01*
X0182394Y0272250D02*
X0182394Y0271250D01*
X0183894Y0271250D01*
X0183894Y0272250D01*
X0182394Y0272250D01*
X0182394Y0271525D02*
X0183894Y0271525D01*
X0141894Y0271525D02*
X0140394Y0271525D01*
X0140394Y0271250D02*
X0141894Y0271250D01*
X0141894Y0272250D01*
X0140394Y0272250D01*
X0140394Y0271250D01*
X0140394Y0272024D02*
X0141894Y0272024D01*
X0121894Y0272024D02*
X0120394Y0272024D01*
X0120394Y0272250D02*
X0120394Y0271250D01*
X0121894Y0271250D01*
X0121894Y0272250D01*
X0120394Y0272250D01*
X0120394Y0271525D02*
X0121894Y0271525D01*
X0081894Y0271525D02*
X0080394Y0271525D01*
X0080394Y0271250D02*
X0081894Y0271250D01*
X0081894Y0272250D01*
X0080394Y0272250D01*
X0080394Y0271250D01*
X0080394Y0272024D02*
X0081894Y0272024D01*
D13*
X0086144Y0237750D03*
X0096144Y0237750D03*
X0106144Y0237750D03*
X0116144Y0237750D03*
X0126144Y0237750D03*
X0136144Y0237750D03*
X0156144Y0257750D03*
X0188144Y0237750D03*
X0198144Y0237750D03*
X0208144Y0237750D03*
X0218144Y0237750D03*
X0228144Y0237750D03*
X0238144Y0237750D03*
X0258144Y0257750D03*
X0290144Y0237750D03*
X0300144Y0237750D03*
X0310144Y0237750D03*
X0320144Y0237750D03*
X0330144Y0237750D03*
X0340144Y0237750D03*
X0360144Y0257750D03*
X0360144Y0155750D03*
X0340144Y0135750D03*
X0330144Y0135750D03*
X0320144Y0135750D03*
X0310144Y0135750D03*
X0300144Y0135750D03*
X0290144Y0135750D03*
X0258144Y0155750D03*
X0238144Y0135750D03*
X0228144Y0135750D03*
X0218144Y0135750D03*
X0208144Y0135750D03*
X0198144Y0135750D03*
X0188144Y0135750D03*
X0156144Y0155750D03*
X0136144Y0135750D03*
X0126144Y0135750D03*
X0116144Y0135750D03*
X0106144Y0135750D03*
X0096144Y0135750D03*
X0086144Y0135750D03*
X0156144Y0053750D03*
X0136144Y0033750D03*
X0126144Y0033750D03*
X0116144Y0033750D03*
X0106144Y0033750D03*
X0096144Y0033750D03*
X0086144Y0033750D03*
X0188144Y0033750D03*
X0198144Y0033750D03*
X0208144Y0033750D03*
X0218144Y0033750D03*
X0228144Y0033750D03*
X0238144Y0033750D03*
X0258144Y0053750D03*
X0290144Y0033750D03*
X0300144Y0033750D03*
X0310144Y0033750D03*
X0320144Y0033750D03*
X0330144Y0033750D03*
X0340144Y0033750D03*
X0360144Y0053750D03*
D14*
X0355144Y0038750D03*
X0275144Y0038750D03*
X0253144Y0038750D03*
X0173144Y0038750D03*
X0151144Y0038750D03*
X0071144Y0038750D03*
X0071144Y0118750D03*
X0071144Y0140750D03*
X0151144Y0140750D03*
X0173144Y0140750D03*
X0173144Y0118750D03*
X0151144Y0118750D03*
X0253144Y0118750D03*
X0275144Y0118750D03*
X0275144Y0140750D03*
X0253144Y0140750D03*
X0253144Y0220750D03*
X0275144Y0220750D03*
X0275144Y0242750D03*
X0253144Y0242750D03*
X0173144Y0242750D03*
X0151144Y0242750D03*
X0151144Y0220750D03*
X0173144Y0220750D03*
X0071144Y0220750D03*
X0071144Y0242750D03*
X0071144Y0322750D03*
X0151144Y0322750D03*
X0173144Y0322750D03*
X0253144Y0322750D03*
X0275144Y0322750D03*
X0355144Y0322750D03*
X0355144Y0242750D03*
X0355144Y0220750D03*
X0355144Y0140750D03*
X0355144Y0118750D03*
M02*
