%
M48
M72
T01C0.0150
T02C0.0400
T03C0.1300
%
T01
X8364Y4575
X9114Y4925
X8914Y5225
X8664Y5825
X8314Y5525
X8264Y6225
X8837Y6400
X9414Y7925
X10514Y8125
X11264Y8925
X12814Y8975
X13614Y9725
X13214Y10425
X14014Y10425
X14514Y10725
X14864Y10730
X15414Y10125
X14014Y8925
X13614Y7675
X13164Y7225
X12639Y7400
X12663Y6777
X13924Y6235
X14209Y5325
X14514Y4825
X13864Y4325
X14164Y3975
X13464Y3975
X12809Y4225
X12514Y4625
X12114Y4525
X11414Y4775
X11064Y4875
X11499Y6475
X10806Y6935
X10983Y7217
X9464Y8925
X8814Y9275
X8214Y9275
X9219Y9725
X10514Y11575
X10764Y11825
X11014Y12075
X11264Y11725
X11884Y11835
X11874Y12165
X12364Y11975
X12714Y11975
X12714Y11625
X10214Y12025
X9714Y11925
X9314Y12175
X8864Y12025
X8864Y11675
X8364Y14775
X9114Y15125
X8914Y15425
X8664Y16025
X8314Y15725
X8264Y16425
X8837Y16600
X7614Y17875
X7164Y17875
X8214Y19475
X8814Y19475
X9219Y19925
X9464Y19125
X9414Y18125
X10514Y18325
X10983Y17417
X10806Y17135
X11499Y16675
X12639Y17600
X12663Y16977
X13164Y17425
X13614Y17875
X14614Y17875
X15364Y18025
X14014Y19125
X13614Y19925
X13214Y20625
X14014Y20625
X14514Y20925
X14864Y20930
X15414Y20325
X12814Y19175
X11264Y19125
X10514Y21775
X10764Y22025
X11014Y22275
X11264Y21925
X11884Y22035
X11874Y22365
X12364Y22175
X12714Y22175
X12714Y21825
X10214Y22225
X9714Y22125
X9314Y22375
X8864Y22225
X8864Y21875
X8364Y24975
X9114Y25325
X8914Y25625
X8664Y26225
X8314Y25925
X8264Y26625
X8837Y26800
X7614Y28075
X7164Y28075
X8214Y29675
X8814Y29675
X9219Y30125
X9464Y29325
X10514Y28525
X11264Y29325
X12814Y29375
X13614Y30125
X13214Y30825
X14014Y30825
X14514Y31125
X14864Y31130
X15414Y30525
X14014Y29325
X15364Y28225
X14614Y28075
X13614Y28075
X13164Y27625
X12663Y27177
X12639Y27800
X11499Y26875
X10806Y27335
X10983Y27617
X9414Y28325
X11064Y25275
X11414Y25175
X12114Y24925
X12514Y25025
X12809Y24625
X13464Y24375
X13864Y24725
X14164Y24375
X14514Y25225
X14209Y25725
X13414Y25375
X13924Y26635
X17364Y28075
X17814Y28075
X18464Y26625
X18864Y26225
X18514Y25925
X19114Y25625
X19314Y25325
X18564Y24975
X19037Y26800
X19614Y28325
X19664Y29325
X19014Y29675
X18414Y29675
X19419Y30125
X19064Y32075
X19064Y32425
X19514Y32575
X19914Y32325
X20414Y32425
X20714Y31975
X20964Y32225
X21214Y32475
X21464Y32125
X22084Y32235
X22074Y32565
X22564Y32375
X22914Y32375
X22914Y32025
X23414Y30825
X24214Y30825
X24714Y31125
X25064Y31130
X25614Y30525
X24214Y29325
X23814Y30125
X23014Y29375
X23814Y28075
X23364Y27625
X22839Y27800
X22863Y27177
X21699Y26875
X21006Y27335
X21183Y27617
X20714Y28525
X21464Y29325
X24814Y28075
X25564Y28225
X27564Y28075
X28014Y28075
X28664Y26625
X29064Y26225
X28714Y25925
X29314Y25625
X29514Y25325
X28764Y24975
X29237Y26800
X29814Y28325
X29864Y29325
X29214Y29675
X28614Y29675
X29619Y30125
X29264Y32075
X29264Y32425
X29714Y32575
X30114Y32325
X30614Y32425
X30914Y31975
X31164Y32225
X31414Y32475
X31664Y32125
X32284Y32235
X32274Y32565
X32764Y32375
X33114Y32375
X33114Y32025
X33614Y30825
X34014Y30125
X34414Y30825
X34914Y31125
X35264Y31130
X35814Y30525
X34414Y29325
X33214Y29375
X31664Y29325
X30914Y28525
X31383Y27617
X31206Y27335
X31899Y26875
X33063Y27177
X33564Y27625
X33039Y27800
X34014Y28075
X35014Y28075
X35764Y28225
X34324Y26635
X34609Y25725
X33814Y25375
X34264Y24725
X34564Y24375
X33864Y24375
X33209Y24625
X32914Y25025
X32514Y24925
X31814Y25175
X31464Y25275
X31414Y22275
X31164Y22025
X30914Y21775
X30614Y22225
X30114Y22125
X29714Y22375
X29264Y22225
X29264Y21875
X29619Y19925
X29214Y19475
X28614Y19475
X29864Y19125
X29814Y18125
X30914Y18325
X31383Y17417
X31206Y17135
X31899Y16675
X33063Y16977
X33039Y17600
X33564Y17425
X34014Y17875
X35014Y17875
X35764Y18025
X34414Y19125
X34014Y19925
X33614Y20625
X34414Y20625
X34914Y20925
X35264Y20930
X35814Y20325
X33214Y19175
X31664Y19125
X29237Y16600
X28664Y16425
X29064Y16025
X28714Y15725
X29314Y15425
X29514Y15125
X28764Y14775
X31464Y15075
X31814Y14975
X32514Y14725
X32914Y14825
X33209Y14425
X33864Y14175
X34264Y14525
X34564Y14175
X34914Y15025
X34609Y15525
X33814Y15175
X34324Y16435
X32274Y12165
X32284Y11835
X32764Y11975
X33114Y11975
X33114Y11625
X33614Y10425
X34014Y9725
X34414Y10425
X34914Y10725
X35264Y10730
X35814Y10125
X34414Y8925
X33214Y8975
X34014Y7675
X33564Y7225
X33039Y7400
X33063Y6777
X31899Y6475
X31383Y7217
X31206Y6935
X30914Y8125
X31664Y8925
X29864Y8925
X29214Y9275
X28614Y9275
X29619Y9725
X30914Y11575
X31164Y11825
X31414Y12075
X31664Y11725
X30614Y12025
X30114Y11925
X29714Y12175
X29264Y12025
X29264Y11675
X25614Y10125
X25064Y10730
X24714Y10725
X24214Y10425
X23414Y10425
X23814Y9725
X24214Y8925
X23014Y8975
X23814Y7675
X23364Y7225
X22839Y7400
X22863Y6777
X21699Y6475
X21183Y7217
X21006Y6935
X20714Y8125
X21464Y8925
X19664Y8925
X19014Y9275
X18414Y9275
X19419Y9725
X20714Y11575
X20964Y11825
X21214Y12075
X21464Y11725
X22084Y11835
X22074Y12165
X22564Y11975
X22914Y11975
X22914Y11625
X20414Y12025
X19914Y11925
X19514Y12175
X19064Y12025
X19064Y11675
X18564Y14775
X19314Y15125
X19114Y15425
X18864Y16025
X18514Y15725
X18464Y16425
X19037Y16600
X17814Y17875
X17364Y17875
X18414Y19475
X19014Y19475
X19419Y19925
X19664Y19125
X19614Y18125
X20714Y18325
X21183Y17417
X21006Y17135
X21699Y16675
X22863Y16977
X22839Y17600
X23364Y17425
X23814Y17875
X24814Y17875
X25564Y18025
X24214Y19125
X23814Y19925
X23414Y20625
X24214Y20625
X24714Y20925
X25064Y20930
X25614Y20325
X23014Y19175
X21464Y19125
X20714Y21775
X20964Y22025
X21214Y22275
X21464Y21925
X22084Y22035
X22074Y22365
X22564Y22175
X22914Y22175
X22914Y21825
X20414Y22225
X19914Y22125
X19514Y22375
X19064Y22225
X19064Y21875
X21264Y25275
X21614Y25175
X22314Y24925
X22714Y25025
X23009Y24625
X23664Y24375
X24064Y24725
X24364Y24375
X24714Y25225
X24409Y25725
X23614Y25375
X24124Y26635
X31664Y21925
X32284Y22035
X32274Y22365
X32764Y22175
X33114Y22175
X33114Y21825
X34914Y25225
X28014Y17875
X27564Y17875
X24409Y15525
X24714Y15025
X24064Y14525
X24364Y14175
X23664Y14175
X23009Y14425
X22714Y14825
X22314Y14725
X21614Y14975
X21264Y15075
X23614Y15175
X24124Y16435
X25564Y7825
X24814Y7675
X24124Y6235
X24409Y5325
X24714Y4825
X24064Y4325
X24364Y3975
X23664Y3975
X23009Y4225
X22714Y4625
X22314Y4525
X21614Y4775
X21264Y4875
X19314Y4925
X19114Y5225
X18864Y5825
X18514Y5525
X18464Y6225
X19037Y6400
X19614Y7925
X17814Y7675
X17364Y7675
X15364Y7825
X14614Y7675
X13414Y4975
X18564Y4575
X23614Y4975
X27564Y7675
X28014Y7675
X28664Y6225
X29064Y5825
X28714Y5525
X29314Y5225
X29514Y4925
X28764Y4575
X29237Y6400
X29814Y7925
X31464Y4875
X31814Y4775
X32514Y4525
X32914Y4625
X33209Y4225
X33864Y3975
X34264Y4325
X34564Y3975
X34914Y4825
X34609Y5325
X33814Y4975
X34324Y6235
X35014Y7675
X35764Y7825
X14514Y15025
X14209Y15525
X13414Y15175
X13864Y14525
X14164Y14175
X13464Y14175
X12809Y14425
X12514Y14825
X12114Y14725
X11414Y14975
X11064Y15075
X13924Y16435
X7614Y7675
X7164Y7675
X8864Y32075
X8864Y32425
X9314Y32575
X9714Y32325
X10214Y32425
X10514Y31975
X10764Y32225
X11014Y32475
X11264Y32125
X11884Y32235
X11874Y32565
X12364Y32375
X12714Y32375
X12714Y32025
T02
X15614Y25775
X13614Y23775
X12614Y23775
X11614Y23775
X10614Y23775
X9614Y23775
X8614Y23775
X15614Y15575
X13614Y13575
X12614Y13575
X11614Y13575
X10614Y13575
X9614Y13575
X8614Y13575
X15614Y5375
X13614Y3375
X12614Y3375
X11614Y3375
X10614Y3375
X9614Y3375
X8614Y3375
X18814Y3375
X19814Y3375
X20814Y3375
X21814Y3375
X22814Y3375
X23814Y3375
X25814Y5375
X29014Y3375
X30014Y3375
X31014Y3375
X32014Y3375
X33014Y3375
X34014Y3375
X36014Y5375
X34014Y13575
X33014Y13575
X32014Y13575
X31014Y13575
X30014Y13575
X29014Y13575
X25814Y15575
X23814Y13575
X22814Y13575
X21814Y13575
X20814Y13575
X19814Y13575
X18814Y13575
X18814Y23775
X19814Y23775
X20814Y23775
X21814Y23775
X22814Y23775
X23814Y23775
X25814Y25775
X29014Y23775
X30014Y23775
X31014Y23775
X32014Y23775
X33014Y23775
X34014Y23775
X36014Y25775
X36014Y15575
T03
X7114Y3875
X15114Y3875
X17314Y3875
X25314Y3875
X27514Y3875
X35514Y3875
X35514Y11875
X35514Y14075
X27514Y14075
X25314Y14075
X25314Y11875
X27514Y11875
X17314Y11875
X15114Y11875
X15114Y14075
X17314Y14075
X17314Y22075
X15114Y22075
X15114Y24275
X17314Y24275
X25314Y24275
X27514Y24275
X27514Y22075
X25314Y22075
X35514Y22075
X35514Y24275
X35514Y32275
X27514Y32275
X25314Y32275
X17314Y32275
X15114Y32275
X7114Y32275
X7114Y24275
X7114Y22075
X7114Y14075
X7114Y11875
M30
